<?xml version="1.0" encoding="UTF-8"?>
<svg width="18px" height="19px" viewBox="0 0 18 19" version="1.1" xmlns="http://www.w3.org/2000/svg" xmlns:xlink="http://www.w3.org/1999/xlink">
    <!-- Generator: sketchtool 60 (101010) - https://sketch.com -->
    <title>C2F5523C-3550-4291-A10D-D94D69B42D73</title>
    <desc>Created with sketchtool.</desc>
    <g id="Page-1" stroke="none" stroke-width="1" fill="none" fill-rule="evenodd">
        <g id="homepage_spinx" transform="translate(-749.000000, -12337.000000)" fill="#FFFFFF" fill-rule="nonzero">
            <g id="12" transform="translate(0.000000, 11930.000000)">
                <g id="864273" transform="translate(749.000000, 407.000000)">
                    <path d="M12.0449419,13.7230839 C11.8745032,13.7090323 11.724929,13.8358452 11.7108774,14.0062839 C11.6970581,14.1738581 11.8194968,14.3218452 11.9867226,14.3396516 C15.8883484,14.7103355 17.3422839,15.6037548 17.3422839,16.0812774 C17.3422839,16.8666194 14.1615871,17.9619484 8.98099355,17.9619484 C3.8004,17.9619484 0.619703226,16.8666194 0.619703226,16.0812774 C0.619703226,15.6037548 2.0751871,14.7103355 5.97526452,14.3387226 C6.14531613,14.3206065 6.26852903,14.1680516 6.2504129,13.998 C6.23260645,13.8308129 6.08461935,13.7083355 5.91704516,13.7221548 C4.52907097,13.8543871 0.000348387097,14.4124258 0.000348387097,16.0812774 C0.000348387097,17.7225677 4.51823226,18.5813032 8.98099355,18.5813032 C13.4437548,18.5813032 17.9616387,17.7225677 17.9616387,16.0812774 C17.9616387,14.4124258 13.4329161,13.8543871 12.0449419,13.7230839 Z" id="Path"></path>
                    <path d="M12.7829032,1.5512129 C11.7823742,0.538103226 10.4112,-0.0220645161 8.98749677,0.000658064516 C7.04756129,0.00677419355 5.26037419,1.05437419 4.30734194,2.74409032 C3.32663226,4.47654194 3.26864516,6.58250323 4.15250323,8.36628387 C5.22344516,10.5455613 6.52525161,12.6036 8.03554839,14.5050194 L8.74501935,15.3978194 C8.80378065,15.4717548 8.89304516,15.5148774 8.98749677,15.5148774 C9.08221935,15.5148774 9.17163871,15.4712903 9.23028387,15.3968903 L9.92117419,14.5205032 C11.4291871,12.6083613 12.7366839,10.5463355 13.8231097,8.36690323 C14.9348516,6.10087742 14.5199613,3.38245161 12.7829032,1.5512129 Z M13.2675484,8.09129032 C12.2005161,10.2323226 10.9164774,12.2581161 9.4356,14.1368129 L8.98687742,14.706 L8.52236129,14.1197806 C7.03873548,12.2528903 5.75976774,10.232129 4.70744516,8.09221935 C3.91432258,6.49230968 3.96603871,4.60323871 4.84556129,3.04912258 C5.69349677,1.54842581 7.2836129,0.620322581 9.00731613,0.620012903 C10.254929,0.601045161 11.4563613,1.09153548 12.3341806,1.97825806 C13.8925935,3.62047742 14.2649032,6.05887742 13.2675484,8.09129032 Z" id="Shape"></path>
                    <path d="M11.3237032,4.57707097 C11.260529,4.41824516 11.0806452,4.34063226 10.9217419,4.40365161 C10.7628387,4.46686452 10.6852645,4.64698065 10.7484774,4.80588387 C10.7485161,4.806 10.7485548,4.80611613 10.7486323,4.80623226 C10.8953806,5.17567742 10.9277806,5.58069677 10.8415355,5.96876129 C10.680929,6.67587097 10.1327613,7.23042581 9.42754839,7.39916129 C8.78972903,7.55148387 8.11858065,7.36095484 7.65588387,6.89624516 C7.18203871,6.41972903 6.98581935,5.73340645 7.13624516,5.07843871 C7.36196129,4.05987097 8.37065806,3.41709677 9.38922581,3.6428129 C9.5052,3.66851613 9.61850323,3.70509677 9.72762581,3.75209032 C9.88498065,3.8192129 10.0669548,3.74609032 10.1340774,3.58873548 C10.2012,3.43138065 10.1280774,3.24940645 9.97072258,3.18228387 C9.47976774,2.97325161 8.93531613,2.92490323 8.4152129,3.04416774 C7.47212903,3.26024516 6.73842581,4.00110968 6.53144516,4.94620645 C6.33472258,5.80772903 6.59434839,6.70989677 7.21892903,7.33505806 C7.69037419,7.80476129 8.32912258,8.06790968 8.99461935,8.06652376 C9.18576774,8.06698065 9.37633548,8.04623226 9.56287742,8.00458065 C10.5056129,7.7876129 11.2386581,7.0464 11.4450968,6.10130323 C11.5587097,5.59258065 11.5164,5.06140645 11.3237032,4.57707097 Z" id="Path"></path>
                </g>
            </g>
        </g>
    </g>
</svg>